<svg xmlns="http://www.w3.org/2000/svg" version="1.1" xmlns:xlink="http://www.w3.org/1999/xlink" xmlns:svgjs="http://svgjs.dev/svgjs" width="2000" height="1247" viewBox="0 0 2000 1247"><g transform="matrix(1,0,0,1,-1.2121212121212466,0.504858299595071)"><svg viewBox="0 0 396 247" data-background-color="#ffffff" preserveAspectRatio="xMidYMid meet" height="1247" width="2000" xmlns="http://www.w3.org/2000/svg" xmlns:xlink="http://www.w3.org/1999/xlink"><g id="tight-bounds" transform="matrix(1,0,0,1,0.2400000000000091,-0.09999999999999432)"><svg viewBox="0 0 395.52 247.2" height="247.2" width="395.52"><g><svg></svg></g><g><svg viewBox="0 0 395.52 247.2" height="247.2" width="395.52"><g transform="matrix(1,0,0,1,75.54432000000001,111.44903893591294)"><svg viewBox="0 0 244.43135999999996 24.301922128174116" height="24.301922128174116" width="244.43135999999996"><g><svg viewBox="0 0 244.43135999999996 24.301922128174116" height="24.301922128174116" width="244.43135999999996"><g><svg viewBox="0 0 244.43135999999996 24.301922128174116" height="24.301922128174116" width="244.43135999999996"><g id="textblocktransform"><svg viewBox="0 0 244.43135999999996 24.301922128174116" height="24.301922128174116" width="244.43135999999996" id="textblock"><g><svg viewBox="0 0 244.43135999999996 24.301922128174116" height="24.301922128174116" width="244.43135999999996"><g transform="matrix(1,0,0,1,0,0)"><svg width="244.43135999999996" viewBox="0.5 -36.5 372.12 37" height="24.301922128174116" data-palette-color="#636365"><path d="M0.5 0L15.05-35.5 18.85-35.5 33.35 0 28.55 0 24.35-10.4 9.45-10.4 5.3 0 0.5 0ZM10.35-13.9L23.35-13.9 16.95-30.3 10.35-13.9ZM60.05-15.6L60.05 0 55.65 0 55.65-14.6Q55.65-18.75 54.37-20.68 53.1-22.6 50.5-22.6L50.5-22.6Q48.7-22.6 46.92-21.7 45.15-20.8 43.77-19.28 42.4-17.75 41.8-15.75L41.8-15.75 41.8 0 37.4 0 37.4-26.1 41.4-26.1 41.4-20.5Q42.45-22.35 44.1-23.7 45.75-25.05 47.85-25.8 49.95-26.55 52.25-26.55L52.25-26.55Q54.5-26.55 56.02-25.73 57.55-24.9 58.42-23.43 59.3-21.95 59.67-19.95 60.05-17.95 60.05-15.6L60.05-15.6ZM71.3 0L66.9 0 66.9-26.1 71.3-26.1 71.3 0ZM71.3-31L66.9-31 66.9-36.5 71.3-36.5 71.3-31ZM117.74-15.6L117.74 0 113.34 0 113.34-14.6Q113.34-18.7 112.02-20.65 110.69-22.6 108.09-22.6L108.09-22.6Q105.44-22.6 103.29-20.68 101.14-18.75 100.24-15.7L100.24-15.7 100.24 0 95.84 0 95.84-14.6Q95.84-18.75 94.54-20.68 93.24-22.6 90.64-22.6L90.64-22.6Q88.04-22.6 85.87-20.73 83.69-18.85 82.79-15.75L82.79-15.75 82.79 0 78.39 0 78.39-26.1 82.39-26.1 82.39-20.5Q83.99-23.4 86.54-24.98 89.09-26.55 92.29-26.55L92.29-26.55Q95.54-26.55 97.49-24.78 99.44-23 99.89-20.2L99.89-20.2Q101.64-23.3 104.14-24.93 106.64-26.55 109.84-26.55L109.84-26.55Q112.09-26.55 113.62-25.73 115.14-24.9 116.04-23.43 116.94-21.95 117.34-19.95 117.74-17.95 117.74-15.6L117.74-15.6ZM122.54-7.55L122.54-7.55Q122.54-10.05 123.97-11.88 125.39-13.7 127.89-14.7 130.39-15.7 133.69-15.7L133.69-15.7Q135.44-15.7 137.39-15.43 139.34-15.15 140.84-14.6L140.84-14.6 140.84-16.5Q140.84-19.5 139.04-21.23 137.24-22.95 133.94-22.95L133.94-22.95Q131.79-22.95 129.81-22.18 127.84-21.4 125.64-19.95L125.64-19.95 124.04-23.05Q126.59-24.8 129.14-25.68 131.69-26.55 134.44-26.55L134.44-26.55Q139.44-26.55 142.34-23.78 145.24-21 145.24-16.05L145.24-16.05 145.24-5Q145.24-4.2 145.56-3.83 145.89-3.45 146.64-3.4L146.64-3.4 146.64 0Q145.99 0.1 145.52 0.15 145.04 0.2 144.74 0.2L144.74 0.2Q143.19 0.2 142.42-0.65 141.64-1.5 141.54-2.45L141.54-2.45 141.44-4.1Q139.74-1.9 136.99-0.7 134.24 0.5 131.54 0.5L131.54 0.5Q128.94 0.5 126.89-0.58 124.84-1.65 123.69-3.48 122.54-5.3 122.54-7.55ZM139.54-5.7L139.54-5.7Q140.14-6.4 140.49-7.13 140.84-7.85 140.84-8.35L140.84-8.35 140.84-11.6Q139.29-12.2 137.59-12.53 135.89-12.85 134.24-12.85L134.24-12.85Q130.89-12.85 128.81-11.53 126.74-10.2 126.74-7.9L126.74-7.9Q126.74-6.65 127.42-5.48 128.09-4.3 129.42-3.55 130.74-2.8 132.69-2.8L132.69-2.8Q134.74-2.8 136.59-3.63 138.44-4.45 139.54-5.7ZM164.54-4.8L165.59-1.3Q165.04-1.05 164.09-0.65 163.14-0.25 161.89 0.05 160.64 0.35 159.24 0.35L159.24 0.35Q157.64 0.35 156.29-0.23 154.94-0.8 154.14-2.02 153.34-3.25 153.34-5.1L153.34-5.1 153.34-22.65 149.79-22.65 149.79-26.1 153.34-26.1 153.34-34.8 157.74-34.8 157.74-26.1 163.59-26.1 163.59-22.65 157.74-22.65 157.74-6.45Q157.84-5.05 158.69-4.38 159.54-3.7 160.69-3.7L160.69-3.7Q161.99-3.7 163.09-4.15 164.19-4.6 164.54-4.8L164.54-4.8ZM174.09 0L169.69 0 169.69-26.1 174.09-26.1 174.09 0ZM174.09-31L169.69-31 169.69-36.5 174.09-36.5 174.09-31ZM192.58 0.5L192.58 0.5Q189.63 0.5 187.23-0.58 184.83-1.65 183.08-3.53 181.33-5.4 180.38-7.85 179.43-10.3 179.43-13L179.43-13Q179.43-15.75 180.38-18.2 181.33-20.65 183.08-22.53 184.83-24.4 187.26-25.48 189.68-26.55 192.63-26.55L192.63-26.55Q195.53-26.55 197.93-25.48 200.33-24.4 202.11-22.53 203.88-20.65 204.83-18.2 205.78-15.75 205.78-13L205.78-13Q205.78-10.3 204.83-7.85 203.88-5.4 202.13-3.53 200.38-1.65 197.96-0.58 195.53 0.5 192.58 0.5ZM183.93-12.95L183.93-12.95Q183.93-10.25 185.11-8.05 186.28-5.85 188.23-4.58 190.18-3.3 192.58-3.3L192.58-3.3Q194.98-3.3 196.96-4.6 198.93-5.9 200.11-8.13 201.28-10.35 201.28-13.05L201.28-13.05Q201.28-15.75 200.11-17.95 198.93-20.15 196.96-21.45 194.98-22.75 192.58-22.75L192.58-22.75Q190.18-22.75 188.23-21.43 186.28-20.1 185.11-17.9 183.93-15.7 183.93-12.95ZM233.78-15.6L233.78 0 229.38 0 229.38-14.6Q229.38-18.75 228.11-20.68 226.83-22.6 224.23-22.6L224.23-22.6Q222.43-22.6 220.66-21.7 218.88-20.8 217.51-19.28 216.13-17.75 215.53-15.75L215.53-15.75 215.53 0 211.13 0 211.13-26.1 215.13-26.1 215.13-20.5Q216.18-22.35 217.83-23.7 219.48-25.05 221.58-25.8 223.68-26.55 225.98-26.55L225.98-26.55Q228.23-26.55 229.76-25.73 231.28-24.9 232.16-23.43 233.03-21.95 233.41-19.95 233.78-17.95 233.78-15.6L233.78-15.6ZM276.93-31.7L274.83-28.05Q274.23-28.75 273.23-29.4 272.23-30.05 270.98-30.58 269.73-31.1 268.25-31.43 266.78-31.75 265.18-31.75L265.18-31.75Q261.08-31.75 259.13-30.2 257.18-28.65 257.18-25.95L257.18-25.95Q257.18-24.05 258.18-22.95 259.18-21.85 261.25-21.15 263.33-20.45 266.53-19.7L266.53-19.7Q270.23-18.9 272.93-17.75 275.63-16.6 277.08-14.68 278.53-12.75 278.53-9.55L278.53-9.55Q278.53-7 277.55-5.13 276.58-3.25 274.83-2.02 273.08-0.8 270.73-0.23 268.38 0.35 265.63 0.35L265.63 0.35Q262.93 0.35 260.35-0.23 257.78-0.8 255.48-1.9 253.18-3 251.18-4.65L251.18-4.65 253.33-8.45Q254.13-7.6 255.4-6.78 256.68-5.95 258.3-5.25 259.93-4.55 261.83-4.13 263.73-3.7 265.73-3.7L265.73-3.7Q269.53-3.7 271.63-5.08 273.73-6.45 273.73-9.1L273.73-9.1Q273.73-11.1 272.55-12.3 271.38-13.5 269.08-14.3 266.78-15.1 263.48-15.9L263.48-15.9Q259.88-16.8 257.43-17.88 254.98-18.95 253.75-20.7 252.53-22.45 252.53-25.25L252.53-25.25Q252.53-28.65 254.18-31 255.83-33.35 258.73-34.55 261.63-35.75 265.28-35.75L265.28-35.75Q267.68-35.75 269.75-35.25 271.83-34.75 273.63-33.85 275.43-32.95 276.93-31.7L276.93-31.7ZM295.67-4.8L296.72-1.3Q296.17-1.05 295.22-0.65 294.27-0.25 293.02 0.05 291.77 0.35 290.37 0.35L290.37 0.35Q288.77 0.35 287.42-0.23 286.07-0.8 285.27-2.02 284.47-3.25 284.47-5.1L284.47-5.1 284.47-22.65 280.92-22.65 280.92-26.1 284.47-26.1 284.47-34.8 288.87-34.8 288.87-26.1 294.72-26.1 294.72-22.65 288.87-22.65 288.87-6.45Q288.97-5.05 289.82-4.38 290.67-3.7 291.82-3.7L291.82-3.7Q293.12-3.7 294.22-4.15 295.32-4.6 295.67-4.8L295.67-4.8ZM311.87 0.5L311.87 0.5Q308.92 0.5 306.52-0.58 304.12-1.65 302.37-3.53 300.62-5.4 299.67-7.85 298.72-10.3 298.72-13L298.72-13Q298.72-15.75 299.67-18.2 300.62-20.65 302.37-22.53 304.12-24.4 306.55-25.48 308.97-26.55 311.92-26.55L311.92-26.55Q314.82-26.55 317.22-25.48 319.62-24.4 321.4-22.53 323.17-20.65 324.12-18.2 325.07-15.75 325.07-13L325.07-13Q325.07-10.3 324.12-7.85 323.17-5.4 321.42-3.53 319.67-1.65 317.25-0.58 314.82 0.5 311.87 0.5ZM303.22-12.95L303.22-12.95Q303.22-10.25 304.4-8.05 305.57-5.85 307.52-4.58 309.47-3.3 311.87-3.3L311.87-3.3Q314.27-3.3 316.25-4.6 318.22-5.9 319.4-8.13 320.57-10.35 320.57-13.05L320.57-13.05Q320.57-15.75 319.4-17.95 318.22-20.15 316.25-21.45 314.27-22.75 311.87-22.75L311.87-22.75Q309.47-22.75 307.52-21.43 305.57-20.1 304.4-17.9 303.22-15.7 303.22-12.95ZM344.22-26.25L344.22-22.25Q340.92-22.2 338.39-20.58 335.87-18.95 334.82-16.1L334.82-16.1 334.82 0 330.42 0 330.42-26.1 334.52-26.1 334.52-20.05Q335.87-22.75 338.09-24.43 340.32-26.1 342.77-26.3L342.77-26.3Q343.27-26.3 343.62-26.3 343.97-26.3 344.22-26.25L344.22-26.25ZM359.52 0.5L359.52 0.5Q356.56 0.5 354.14-0.58 351.72-1.65 349.94-3.53 348.17-5.4 347.19-7.85 346.22-10.3 346.22-13.05L346.22-13.05Q346.22-16.75 347.92-19.8 349.62-22.85 352.64-24.7 355.67-26.55 359.56-26.55L359.56-26.55Q363.52-26.55 366.44-24.68 369.37-22.8 370.99-19.78 372.62-16.75 372.62-13.25L372.62-13.25Q372.62-12.75 372.59-12.28 372.56-11.8 372.52-11.55L372.52-11.55 350.87-11.55Q351.06-9 352.29-7.03 353.52-5.05 355.47-3.93 357.42-2.8 359.67-2.8L359.67-2.8Q362.06-2.8 364.19-4 366.31-5.2 367.12-7.15L367.12-7.15 370.92-6.1Q370.06-4.2 368.39-2.7 366.72-1.2 364.44-0.35 362.17 0.5 359.52 0.5ZM350.72-14.6L350.72-14.6 368.52-14.6Q368.31-17.15 367.06-19.1 365.81-21.05 363.87-22.15 361.92-23.25 359.56-23.25L359.56-23.25Q357.27-23.25 355.31-22.15 353.37-21.05 352.14-19.1 350.92-17.15 350.72-14.6Z" opacity="1" transform="matrix(1,0,0,1,0,0)" fill="#ffffff" class="wordmark-text-0" data-fill-palette-color="primary" id="text-0"></path></svg></g></svg></g></svg></g></svg></g></svg></g></svg></g><g><path d="M0 123.6c0-68.262 55.338-123.6 123.6-123.6 63.178 0 115.285 47.402 122.697 108.58l-1.104 0c-7.405-60.572-59.02-107.485-121.593-107.484-67.657 0-122.504 54.847-122.504 122.504 0 67.657 54.847 122.504 122.504 122.504 62.572 0 114.188-46.913 121.593-107.484h1.104c-7.411 61.179-59.518 108.58-122.697 108.58-68.262 0-123.6-55.338-123.6-123.6z" fill="#ffffff" stroke="transparent" data-fill-palette-color="tertiary"></path></g></svg></g><defs></defs></svg><rect width="395.52" height="247.2" fill="none" stroke="none" visibility="hidden"></rect></g></svg></g></svg>